<svg width="287" height="94" viewBox="0 0 287 94" fill="none" xmlns="http://www.w3.org/2000/svg">
<rect width="287" height="94" rx="10" fill="#F7FAFC"/>
<path d="M92.3295 37V26.8182H98.7131V28.1406H93.8658V31.2429H98.38V32.5604H93.8658V35.6776H98.7727V37H92.3295ZM102.588 37.169C102.104 37.169 101.667 37.0795 101.276 36.9006C100.884 36.7183 100.575 36.4548 100.346 36.1101C100.121 35.7654 100.008 35.3428 100.008 34.8423C100.008 34.4115 100.091 34.0568 100.256 33.7784C100.422 33.5 100.646 33.2796 100.928 33.1172C101.209 32.9548 101.524 32.8321 101.872 32.7493C102.22 32.6664 102.575 32.6035 102.936 32.5604C103.393 32.5073 103.765 32.4643 104.05 32.4311C104.335 32.3946 104.542 32.3366 104.671 32.2571C104.8 32.1776 104.865 32.0483 104.865 31.8693V31.8345C104.865 31.4003 104.742 31.0639 104.497 30.8253C104.255 30.5866 103.894 30.4673 103.413 30.4673C102.913 30.4673 102.518 30.5784 102.23 30.8004C101.945 31.0192 101.748 31.2628 101.639 31.5312L100.241 31.2131C100.407 30.7491 100.649 30.3745 100.967 30.0895C101.289 29.8011 101.658 29.5923 102.076 29.4631C102.494 29.3305 102.933 29.2642 103.393 29.2642C103.698 29.2642 104.022 29.3007 104.363 29.3736C104.708 29.4432 105.029 29.5724 105.327 29.7614C105.629 29.9503 105.876 30.2204 106.068 30.5717C106.26 30.9197 106.357 31.3722 106.357 31.929V37H104.905V35.956H104.845C104.749 36.1482 104.605 36.3371 104.413 36.5227C104.22 36.7083 103.973 36.8625 103.672 36.9851C103.37 37.1077 103.009 37.169 102.588 37.169ZM102.911 35.9759C103.322 35.9759 103.674 35.8946 103.965 35.7322C104.26 35.5698 104.484 35.3577 104.636 35.0959C104.792 34.8307 104.87 34.5473 104.87 34.2457V33.2614C104.817 33.3144 104.714 33.3641 104.562 33.4105C104.413 33.4536 104.242 33.4917 104.05 33.5249C103.857 33.5547 103.67 33.5829 103.488 33.6094C103.306 33.6326 103.153 33.6525 103.031 33.669C102.742 33.7055 102.479 33.7668 102.24 33.853C102.005 33.9392 101.816 34.0634 101.673 34.2259C101.534 34.3849 101.464 34.5971 101.464 34.8622C101.464 35.2301 101.6 35.5085 101.872 35.6974C102.144 35.883 102.49 35.9759 102.911 35.9759ZM108.056 37V29.3636H109.493V30.5767H109.573C109.712 30.1657 109.957 29.8426 110.309 29.6072C110.663 29.3686 111.064 29.2493 111.512 29.2493C111.605 29.2493 111.714 29.2526 111.84 29.2592C111.969 29.2659 112.07 29.2741 112.143 29.2841V30.706C112.083 30.6894 111.977 30.6712 111.825 30.6513C111.672 30.6281 111.52 30.6165 111.368 30.6165C111.016 30.6165 110.703 30.6911 110.428 30.8402C110.156 30.986 109.941 31.1899 109.782 31.4517C109.623 31.7102 109.543 32.0052 109.543 32.3366V37H108.056ZM114.636 32.4659V37H113.15V29.3636H114.576V30.6065H114.671C114.846 30.2022 115.122 29.8774 115.496 29.6321C115.874 29.3868 116.35 29.2642 116.923 29.2642C117.443 29.2642 117.899 29.3736 118.29 29.5923C118.681 29.8078 118.985 30.1293 119.2 30.5568C119.415 30.9844 119.523 31.513 119.523 32.1428V37H118.037V32.3217C118.037 31.7682 117.892 31.3357 117.604 31.0241C117.316 30.7093 116.92 30.5518 116.416 30.5518C116.071 30.5518 115.765 30.6264 115.496 30.7756C115.231 30.9247 115.02 31.1435 114.865 31.4318C114.712 31.7169 114.636 32.0616 114.636 32.4659ZM121.237 37V29.3636H122.723V37H121.237ZM121.987 28.1854C121.729 28.1854 121.507 28.0992 121.321 27.9268C121.139 27.7512 121.048 27.5424 121.048 27.3004C121.048 27.0552 121.139 26.8464 121.321 26.674C121.507 26.4983 121.729 26.4105 121.987 26.4105C122.246 26.4105 122.466 26.4983 122.649 26.674C122.834 26.8464 122.927 27.0552 122.927 27.3004C122.927 27.5424 122.834 27.7512 122.649 27.9268C122.466 28.0992 122.246 28.1854 121.987 28.1854ZM125.93 32.4659V37H124.443V29.3636H125.87V30.6065H125.964C126.14 30.2022 126.415 29.8774 126.79 29.6321C127.167 29.3868 127.643 29.2642 128.216 29.2642C128.737 29.2642 129.193 29.3736 129.584 29.5923C129.975 29.8078 130.278 30.1293 130.493 30.5568C130.709 30.9844 130.817 31.513 130.817 32.1428V37H129.33V32.3217C129.33 31.7682 129.186 31.3357 128.898 31.0241C128.609 30.7093 128.213 30.5518 127.709 30.5518C127.365 30.5518 127.058 30.6264 126.79 30.7756C126.524 30.9247 126.314 31.1435 126.158 31.4318C126.006 31.7169 125.93 32.0616 125.93 32.4659ZM135.732 40.0227C135.125 40.0227 134.603 39.9432 134.166 39.7841C133.732 39.625 133.377 39.4145 133.102 39.1527C132.827 38.8909 132.621 38.6042 132.485 38.2926L133.763 37.7656C133.853 37.9115 133.972 38.0656 134.121 38.228C134.274 38.3937 134.479 38.5346 134.738 38.6506C134.999 38.7666 135.336 38.8246 135.747 38.8246C136.31 38.8246 136.776 38.687 137.144 38.4119C137.512 38.1402 137.696 37.706 137.696 37.1094V35.608H137.601C137.512 35.7704 137.382 35.951 137.213 36.1499C137.048 36.3487 136.819 36.5211 136.527 36.6669C136.236 36.8127 135.856 36.8857 135.389 36.8857C134.786 36.8857 134.242 36.7448 133.758 36.4631C133.278 36.178 132.896 35.7588 132.615 35.2053C132.336 34.6484 132.197 33.964 132.197 33.152C132.197 32.34 132.335 31.6439 132.61 31.0639C132.888 30.4839 133.269 30.0398 133.753 29.7315C134.237 29.42 134.786 29.2642 135.399 29.2642C135.873 29.2642 136.256 29.3438 136.547 29.5028C136.839 29.6586 137.066 29.8409 137.228 30.0497C137.394 30.2585 137.522 30.4425 137.611 30.6016H137.721V29.3636H139.177V37.169C139.177 37.8253 139.025 38.3639 138.72 38.7848C138.415 39.2057 138.002 39.5173 137.482 39.7195C136.965 39.9216 136.382 40.0227 135.732 40.0227ZM135.717 35.6527C136.145 35.6527 136.506 35.5533 136.801 35.3544C137.099 35.1522 137.324 34.8639 137.477 34.4893C137.633 34.1115 137.711 33.6591 137.711 33.1321C137.711 32.6184 137.634 32.166 137.482 31.7749C137.329 31.3838 137.106 31.0788 136.811 30.8601C136.516 30.638 136.151 30.527 135.717 30.527C135.27 30.527 134.897 30.643 134.598 30.875C134.3 31.1037 134.075 31.4152 133.922 31.8097C133.773 32.2041 133.699 32.6449 133.699 33.1321C133.699 33.6326 133.775 34.0717 133.927 34.4496C134.08 34.8274 134.305 35.1224 134.603 35.3345C134.905 35.5466 135.276 35.6527 135.717 35.6527ZM146.613 31.228L145.266 31.4666C145.21 31.2943 145.12 31.1302 144.997 30.9744C144.878 30.8187 144.716 30.6911 144.51 30.5916C144.305 30.4922 144.048 30.4425 143.74 30.4425C143.319 30.4425 142.967 30.5369 142.686 30.7259C142.404 30.9115 142.263 31.1518 142.263 31.4467C142.263 31.7019 142.357 31.9074 142.546 32.0632C142.735 32.219 143.04 32.3466 143.461 32.446L144.674 32.7244C145.377 32.8868 145.901 33.1371 146.245 33.4751C146.59 33.8132 146.762 34.2524 146.762 34.7926C146.762 35.25 146.63 35.6577 146.365 36.0156C146.103 36.3703 145.736 36.6487 145.266 36.8509C144.799 37.053 144.257 37.1541 143.64 37.1541C142.785 37.1541 142.087 36.9718 141.547 36.6072C141.007 36.2393 140.675 35.7173 140.553 35.0412L141.99 34.8224C142.079 35.197 142.263 35.4804 142.541 35.6726C142.82 35.8615 143.183 35.956 143.63 35.956C144.117 35.956 144.507 35.8549 144.799 35.6527C145.09 35.4472 145.236 35.197 145.236 34.902C145.236 34.6634 145.147 34.4628 144.968 34.3004C144.792 34.138 144.522 34.0154 144.157 33.9325L142.865 33.6491C142.152 33.4867 141.625 33.2282 141.284 32.8736C140.946 32.5189 140.777 32.0698 140.777 31.5263C140.777 31.0755 140.902 30.6811 141.154 30.343C141.406 30.005 141.754 29.7415 142.198 29.5526C142.643 29.3603 143.151 29.2642 143.725 29.2642C144.55 29.2642 145.2 29.4432 145.674 29.8011C146.147 30.1558 146.461 30.6314 146.613 31.228Z" fill="#1C4532"/>
<path d="M98.4893 70.1818V48.3636H99.8871V70.1818H98.4893ZM102.197 55.5653C102.129 54.8778 101.836 54.3437 101.319 53.9631C100.802 53.5824 100.1 53.392 99.2138 53.392C98.6115 53.392 98.103 53.4773 97.6882 53.6477C97.2734 53.8125 96.9553 54.0426 96.7337 54.3381C96.5178 54.6335 96.4098 54.9688 96.4098 55.3438C96.3984 55.6562 96.4638 55.929 96.6058 56.1619C96.7536 56.3949 96.9553 56.5966 97.2109 56.767C97.4666 56.9318 97.7621 57.0767 98.0973 57.2017C98.4325 57.321 98.7905 57.4233 99.1712 57.5085L100.739 57.8835C101.501 58.054 102.2 58.2812 102.836 58.5653C103.472 58.8494 104.023 59.1989 104.489 59.6136C104.955 60.0284 105.316 60.517 105.572 61.0795C105.833 61.642 105.967 62.2869 105.972 63.0142C105.967 64.0824 105.694 65.0085 105.154 65.7926C104.62 66.571 103.847 67.1761 102.836 67.608C101.83 68.0341 100.617 68.2472 99.1967 68.2472C97.7876 68.2472 96.5604 68.0312 95.5149 67.5994C94.4751 67.1676 93.6626 66.5284 93.0774 65.6818C92.4979 64.8295 92.1939 63.7756 92.1655 62.5199H95.7365C95.7763 63.1051 95.9439 63.5937 96.2393 63.9858C96.5405 64.3722 96.9411 64.6648 97.4411 64.8636C97.9467 65.0568 98.5178 65.1534 99.1541 65.1534C99.7791 65.1534 100.322 65.0625 100.782 64.8807C101.248 64.6989 101.609 64.446 101.864 64.1222C102.12 63.7983 102.248 63.4261 102.248 63.0057C102.248 62.6136 102.131 62.2841 101.898 62.017C101.671 61.75 101.336 61.5227 100.893 61.3352C100.455 61.1477 99.9183 60.9773 99.282 60.8239L97.3814 60.3466C95.9098 59.9886 94.7479 59.429 93.8956 58.6676C93.0433 57.9062 92.62 56.8807 92.6257 55.5909C92.62 54.5341 92.9013 53.6108 93.4695 52.821C94.0433 52.0312 94.8303 51.4148 95.8303 50.9716C96.8303 50.5284 97.9666 50.3068 99.2393 50.3068C100.535 50.3068 101.665 50.5284 102.631 50.9716C103.603 51.4148 104.359 52.0312 104.898 52.821C105.438 53.6108 105.717 54.5256 105.734 55.5653H102.197ZM114.324 68.2386C113.051 68.2386 111.918 68.0199 110.923 67.5824C109.935 67.1392 109.154 66.5312 108.58 65.7585C108.011 64.9801 107.719 64.0824 107.702 63.0653H111.418C111.44 63.4915 111.58 63.8665 111.835 64.1903C112.097 64.5085 112.443 64.7557 112.875 64.9318C113.307 65.108 113.793 65.196 114.333 65.196C114.895 65.196 115.392 65.0966 115.824 64.8977C116.256 64.6989 116.594 64.4233 116.838 64.071C117.083 63.7187 117.205 63.3125 117.205 62.8523C117.205 62.3864 117.074 61.9744 116.813 61.6165C116.557 61.2528 116.188 60.9687 115.705 60.7642C115.227 60.5597 114.659 60.4574 114 60.4574H112.372V57.7472H114C114.557 57.7472 115.048 57.6506 115.475 57.4574C115.906 57.2642 116.242 56.9972 116.48 56.6562C116.719 56.3097 116.838 55.9062 116.838 55.446C116.838 55.0085 116.733 54.625 116.523 54.2955C116.318 53.9602 116.029 53.6989 115.654 53.5114C115.284 53.3239 114.852 53.2301 114.358 53.2301C113.858 53.2301 113.401 53.321 112.986 53.5028C112.571 53.679 112.239 53.9318 111.989 54.2614C111.739 54.5909 111.605 54.9773 111.588 55.4205H108.051C108.068 54.4148 108.355 53.5284 108.912 52.7614C109.469 51.9943 110.219 51.3949 111.162 50.9631C112.111 50.5256 113.182 50.3068 114.375 50.3068C115.58 50.3068 116.634 50.5256 117.537 50.9631C118.44 51.4006 119.142 51.9915 119.642 52.7358C120.148 53.4744 120.398 54.304 120.392 55.2244C120.398 56.2017 120.094 57.017 119.48 57.6705C118.872 58.3239 118.08 58.7386 117.102 58.9148V59.0511C118.386 59.2159 119.364 59.6619 120.034 60.3892C120.71 61.1108 121.046 62.0142 121.04 63.0994C121.046 64.0938 120.759 64.9773 120.179 65.75C119.605 66.5227 118.813 67.1307 117.801 67.5739C116.79 68.017 115.631 68.2386 114.324 68.2386ZM129.588 68.2386C128.383 68.2386 127.309 68.017 126.366 67.5739C125.428 67.1307 124.684 66.5199 124.133 65.7415C123.582 64.9631 123.295 64.071 123.272 63.0653H126.852C126.892 63.7415 127.176 64.2898 127.704 64.7102C128.232 65.1307 128.86 65.3409 129.588 65.3409C130.167 65.3409 130.678 65.2131 131.122 64.9574C131.571 64.696 131.92 64.3352 132.17 63.875C132.426 63.4091 132.553 62.875 132.553 62.2727C132.553 61.6591 132.423 61.1193 132.161 60.6534C131.906 60.1875 131.551 59.8239 131.096 59.5625C130.642 59.3011 130.122 59.1676 129.536 59.1619C129.025 59.1619 128.528 59.267 128.045 59.4773C127.568 59.6875 127.196 59.9744 126.928 60.3381L123.647 59.75L124.474 50.5455H135.144V53.5625H127.517L127.065 57.9347H127.167C127.474 57.5028 127.937 57.1449 128.556 56.8608C129.176 56.5767 129.869 56.4347 130.636 56.4347C131.687 56.4347 132.625 56.6818 133.448 57.1761C134.272 57.6705 134.923 58.3494 135.4 59.2131C135.877 60.071 136.113 61.0597 136.107 62.179C136.113 63.3551 135.84 64.4006 135.289 65.3153C134.744 66.2244 133.98 66.9403 132.997 67.4631C132.019 67.9801 130.883 68.2386 129.588 68.2386ZM145.045 68.3835C143.579 68.3778 142.318 68.017 141.261 67.3011C140.21 66.5852 139.4 65.5483 138.832 64.1903C138.27 62.8324 137.991 61.1989 137.997 59.2898C137.997 57.3864 138.278 55.7642 138.841 54.4233C139.409 53.0824 140.218 52.0625 141.27 51.3636C142.326 50.6591 143.585 50.3068 145.045 50.3068C146.505 50.3068 147.761 50.6591 148.812 51.3636C149.869 52.0682 150.681 53.0909 151.25 54.4318C151.818 55.767 152.099 57.3864 152.093 59.2898C152.093 61.2045 151.809 62.8409 151.241 64.1989C150.679 65.5568 149.872 66.5937 148.821 67.3097C147.77 68.0256 146.511 68.3835 145.045 68.3835ZM145.045 65.3239C146.045 65.3239 146.843 64.821 147.44 63.8153C148.037 62.8097 148.332 61.3011 148.326 59.2898C148.326 57.9659 148.19 56.8636 147.917 55.983C147.65 55.1023 147.27 54.4403 146.775 53.9972C146.287 53.554 145.71 53.3324 145.045 53.3324C144.051 53.3324 143.255 53.8295 142.659 54.8239C142.062 55.8182 141.761 57.3068 141.755 59.2898C141.755 60.6307 141.889 61.75 142.156 62.6477C142.429 63.5398 142.812 64.2102 143.306 64.6591C143.801 65.1023 144.38 65.3239 145.045 65.3239ZM155.698 68.2216C155.135 68.2216 154.652 68.0227 154.249 67.625C153.851 67.2216 153.652 66.7386 153.652 66.1761C153.652 65.6193 153.851 65.142 154.249 64.7443C154.652 64.3466 155.135 64.1477 155.698 64.1477C156.243 64.1477 156.721 64.3466 157.13 64.7443C157.539 65.142 157.743 65.6193 157.743 66.1761C157.743 66.5511 157.647 66.8949 157.454 67.2074C157.266 67.5142 157.019 67.7614 156.712 67.9489C156.405 68.1307 156.067 68.2216 155.698 68.2216ZM159.946 64.9318V62.0256L167.233 50.5455H169.738V54.5682H168.256L163.662 61.8381V61.9744H174.017V64.9318H159.946ZM168.324 68V64.0455L168.392 62.7585V50.5455H171.852V68H168.324ZM182.839 68.3835C181.374 68.3778 180.112 68.017 179.055 67.3011C178.004 66.5852 177.195 65.5483 176.626 64.1903C176.064 62.8324 175.785 61.1989 175.791 59.2898C175.791 57.3864 176.072 55.7642 176.635 54.4233C177.203 53.0824 178.013 52.0625 179.064 51.3636C180.121 50.6591 181.379 50.3068 182.839 50.3068C184.3 50.3068 185.555 50.6591 186.607 51.3636C187.663 52.0682 188.476 53.0909 189.044 54.4318C189.612 55.767 189.893 57.3864 189.888 59.2898C189.888 61.2045 189.604 62.8409 189.035 64.1989C188.473 65.5568 187.666 66.5937 186.615 67.3097C185.564 68.0256 184.305 68.3835 182.839 68.3835ZM182.839 65.3239C183.839 65.3239 184.638 64.821 185.234 63.8153C185.831 62.8097 186.126 61.3011 186.121 59.2898C186.121 57.9659 185.984 56.8636 185.712 55.983C185.445 55.1023 185.064 54.4403 184.57 53.9972C184.081 53.554 183.504 53.3324 182.839 53.3324C181.845 53.3324 181.05 53.8295 180.453 54.8239C179.857 55.8182 179.555 57.3068 179.55 59.2898C179.55 60.6307 179.683 61.75 179.95 62.6477C180.223 63.5398 180.607 64.2102 181.101 64.6591C181.595 65.1023 182.175 65.3239 182.839 65.3239Z" fill="#1C4532"/>
<circle cx="45" cy="48" r="28" fill="#F4F7FE"/>
<g clip-path="url(#clip0_2_9571)">
<path d="M37.2841 44.3135H37.5578C38.6115 44.3135 39.4736 45.1756 39.4736 46.2293V55.8081C39.4736 56.8618 38.6115 57.7239 37.5578 57.7239H37.2841C36.2305 57.7239 35.3684 56.8618 35.3684 55.8081V46.2293C35.3684 45.1756 36.2305 44.3135 37.2841 44.3135ZM44.9472 38.5662C46.0009 38.5662 46.863 39.4283 46.863 40.482V55.8081C46.863 56.8618 46.0009 57.7239 44.9472 57.7239C43.8935 57.7239 43.0314 56.8618 43.0314 55.8081V40.482C43.0314 39.4283 43.8935 38.5662 44.9472 38.5662ZM52.6103 49.5135C53.6639 49.5135 54.526 50.3756 54.526 51.4292V55.8081C54.526 56.8618 53.6639 57.7239 52.6103 57.7239C51.5566 57.7239 50.6945 56.8618 50.6945 55.8081V51.4292C50.6945 50.3756 51.5566 49.5135 52.6103 49.5135Z" fill="#1C4532"/>
</g>
<defs>
<clipPath id="clip0_2_9571">
<rect width="32.8417" height="32.8417" fill="white" transform="translate(28.5264 31.7242)"/>
</clipPath>
</defs>
</svg>
